<svg width="258" height="34" viewBox="0 0 258 34" fill="none" xmlns="http://www.w3.org/2000/svg">
<path d="M0.72 4.2H24.56V10.36H16.16V33H9.08V10.36H0.72V4.2ZM27.6103 33V18.92C27.6103 18.3867 27.597 17.7067 27.5703 16.88C27.5703 16.0267 27.5303 15.2 27.4503 14.4C27.397 13.5733 27.317 12.92 27.2103 12.44L27.3303 12.12C28.1036 11.8533 28.9703 11.6133 29.9303 11.4C30.917 11.1867 31.997 11.0133 33.1703 10.88C34.3703 10.72 35.677 10.64 37.0903 10.64C37.4903 10.64 38.0236 10.6533 38.6903 10.68C39.3836 10.7067 40.117 10.7867 40.8903 10.92V16.44H40.4503C39.997 16.3333 39.5036 16.2533 38.9703 16.2C38.4636 16.12 37.957 16.08 37.4503 16.08C36.5703 16.08 35.7436 16.16 34.9703 16.32C34.197 16.4533 33.5436 16.64 33.0103 16.88L33.9703 15.32C34.4236 15.96 34.6503 17.32 34.6503 19.4V33H27.6103ZM53.4128 33.48C49.8928 33.48 47.2395 32.96 45.4528 31.92C43.6661 30.8533 42.7728 29.04 42.7728 26.48C42.7728 24.8533 43.1728 23.5333 43.9728 22.52C44.7995 21.5067 45.9328 20.7733 47.3728 20.32C48.8128 19.84 50.4528 19.6 52.2928 19.6C53.1995 19.6 54.0261 19.6533 54.7728 19.76C55.5195 19.8667 56.2261 20 56.8928 20.16V24.28C56.4928 24.1467 55.9595 24.0267 55.2928 23.92C54.6261 23.8133 53.9861 23.76 53.3728 23.76C51.9595 23.76 50.9061 23.96 50.2128 24.36C49.5461 24.76 49.2128 25.4267 49.2128 26.36C49.2128 27.2933 49.5461 27.9467 50.2128 28.32C50.9061 28.6933 51.8795 28.88 53.1328 28.88C53.9595 28.88 54.7595 28.8 55.5328 28.64C56.3061 28.4533 56.9595 28.1467 57.4928 27.72L56.6928 29.68C56.5061 29.2533 56.3595 28.8667 56.2528 28.52C56.1461 28.1733 56.0661 27.8133 56.0128 27.44C55.9595 27.04 55.9195 26.5733 55.8928 26.04C55.8928 25.48 55.8928 24.7867 55.8928 23.96V19.76C55.8928 18.6667 55.7061 17.8267 55.3328 17.24C54.9595 16.6533 54.3861 16.2667 53.6128 16.08C52.8661 15.8667 51.9195 15.76 50.7728 15.76C49.6261 15.76 48.5328 15.8667 47.4928 16.08C46.4795 16.2667 45.6528 16.5067 45.0128 16.8H44.6128V11.44C45.5728 11.1733 46.6395 10.96 47.8128 10.8C49.0128 10.6133 50.2795 10.52 51.6128 10.52C53.2395 10.52 54.7328 10.6667 56.0928 10.96C57.4528 11.2533 58.6261 11.76 59.6128 12.48C60.6261 13.1733 61.3995 14.1467 61.9328 15.4C62.4661 16.6267 62.7328 18.2133 62.7328 20.16V25C62.7328 25.56 62.7461 26.2533 62.7728 27.08C62.7995 27.9067 62.8395 28.72 62.8928 29.52C62.9461 30.32 63.0395 30.96 63.1728 31.44L63.0128 31.76C62.0795 32.1067 61.0928 32.4133 60.0528 32.68C59.0128 32.92 57.9328 33.1067 56.8128 33.24C55.6928 33.4 54.5595 33.48 53.4128 33.48ZM68.5088 33V19.48C68.5088 18.9467 68.4954 18.2667 68.4688 17.44C68.4688 16.5867 68.4288 15.76 68.3488 14.96C68.2954 14.1333 68.2154 13.48 68.1087 13L68.2288 12.68C69.1088 12.3067 70.1088 11.96 71.2288 11.64C72.3754 11.32 73.5754 11.0533 74.8288 10.84C76.1088 10.6267 77.3754 10.52 78.6288 10.52C80.0154 10.52 81.3621 10.6667 82.6688 10.96C83.9754 11.2533 85.1488 11.7733 86.1888 12.52C87.2554 13.24 88.0954 14.2533 88.7088 15.56C89.3221 16.8667 89.6288 18.52 89.6288 20.52V33H82.5888V20.76C82.5888 19.5067 82.4021 18.5467 82.0288 17.88C81.6554 17.2133 81.1221 16.7467 80.4288 16.48C79.7621 16.2133 78.9888 16.08 78.1088 16.08C77.3354 16.08 76.6021 16.1733 75.9088 16.36C75.2154 16.5467 74.5888 16.7333 74.0288 16.92L75.0288 15.36C75.2154 15.76 75.3488 16.2933 75.4288 16.96C75.5088 17.6 75.5488 18.4133 75.5488 19.4V33H68.5088ZM94.4628 26.56H94.7828C95.7428 26.96 96.9028 27.32 98.2628 27.64C99.6228 27.96 100.983 28.12 102.343 28.12C102.876 28.12 103.369 28.1067 103.823 28.08C104.276 28.0267 104.663 27.9467 104.983 27.84C105.329 27.7333 105.596 27.56 105.783 27.32C105.969 27.08 106.063 26.76 106.063 26.36C106.063 25.7733 105.809 25.3733 105.303 25.16C104.823 24.9467 103.969 24.7333 102.743 24.52L100.943 24.2C98.9161 23.8267 97.3028 23.1733 96.1028 22.24C94.9295 21.3067 94.3428 19.88 94.3428 17.96C94.3428 16.5733 94.7161 15.3333 95.4628 14.24C96.2095 13.12 97.3828 12.2533 98.9828 11.64C100.583 11 102.649 10.68 105.183 10.68C106.383 10.68 107.476 10.7467 108.463 10.88C109.476 11.0133 110.489 11.2267 111.503 11.52V17.08H111.183C110.089 16.6533 109.023 16.36 107.983 16.2C106.943 16.0133 105.956 15.92 105.023 15.92C103.796 15.92 102.836 16.0533 102.143 16.32C101.449 16.56 101.103 17.0133 101.103 17.68C101.103 18.1867 101.369 18.5467 101.903 18.76C102.463 18.9733 103.263 19.1733 104.303 19.36L106.143 19.68C107.396 19.8933 108.529 20.24 109.543 20.72C110.583 21.2 111.409 21.88 112.023 22.76C112.636 23.6133 112.943 24.72 112.943 26.08C112.943 28.5333 112.023 30.36 110.183 31.56C108.369 32.7333 105.623 33.32 101.943 33.32C100.689 33.32 99.3961 33.2133 98.0628 33C96.7295 32.7867 95.5295 32.52 94.4628 32.2V26.56ZM120.857 7.96C119.764 7.96 118.87 7.65333 118.177 7.04C117.484 6.4 117.137 5.49333 117.137 4.32C117.137 3.14667 117.484 2.25333 118.177 1.64C118.87 0.999999 119.764 0.679999 120.857 0.679999C121.977 0.679999 122.884 0.999999 123.577 1.64C124.27 2.25333 124.617 3.14667 124.617 4.32C124.617 5.49333 124.27 6.4 123.577 7.04C122.884 7.65333 121.977 7.96 120.857 7.96ZM117.337 33V17.8C117.337 17.2667 117.324 16.5867 117.297 15.76C117.297 14.9333 117.257 14.1333 117.177 13.36C117.124 12.56 117.044 11.92 116.937 11.44L117.057 11.12H124.377V33H117.337ZM141.221 33.32C139.274 33.32 137.568 33.0667 136.101 32.56C134.661 32.0267 133.528 31.1467 132.701 29.92C131.901 28.6667 131.501 26.9867 131.501 24.88V5.64H138.541V24.36C138.541 25.5867 138.834 26.4667 139.421 27C140.034 27.5067 140.981 27.76 142.261 27.76C142.741 27.76 143.208 27.7067 143.661 27.6C144.114 27.4933 144.514 27.3733 144.861 27.24H145.301V32.76C144.714 32.9467 144.101 33.08 143.461 33.16C142.821 33.2667 142.074 33.32 141.221 33.32ZM127.941 16.56V11.12H144.301V16.56H127.941ZM147.009 4.2H170.849V10.36H162.449V33H155.369V10.36H147.009V4.2ZM173.899 33V18.92C173.899 18.3867 173.886 17.7067 173.859 16.88C173.859 16.0267 173.819 15.2 173.739 14.4C173.686 13.5733 173.606 12.92 173.499 12.44L173.619 12.12C174.393 11.8533 175.259 11.6133 176.219 11.4C177.206 11.1867 178.286 11.0133 179.459 10.88C180.659 10.72 181.966 10.64 183.379 10.64C183.779 10.64 184.313 10.6533 184.979 10.68C185.673 10.7067 186.406 10.7867 187.179 10.92V16.44H186.739C186.286 16.3333 185.793 16.2533 185.259 16.2C184.753 16.12 184.246 16.08 183.739 16.08C182.859 16.08 182.033 16.16 181.259 16.32C180.486 16.4533 179.833 16.64 179.299 16.88L180.259 15.32C180.713 15.96 180.939 17.32 180.939 19.4V33H173.899ZM199.702 33.48C196.182 33.48 193.529 32.96 191.742 31.92C189.955 30.8533 189.062 29.04 189.062 26.48C189.062 24.8533 189.462 23.5333 190.262 22.52C191.089 21.5067 192.222 20.7733 193.662 20.32C195.102 19.84 196.742 19.6 198.582 19.6C199.489 19.6 200.315 19.6533 201.062 19.76C201.809 19.8667 202.515 20 203.182 20.16V24.28C202.782 24.1467 202.249 24.0267 201.582 23.92C200.915 23.8133 200.275 23.76 199.662 23.76C198.249 23.76 197.195 23.96 196.502 24.36C195.835 24.76 195.502 25.4267 195.502 26.36C195.502 27.2933 195.835 27.9467 196.502 28.32C197.195 28.6933 198.169 28.88 199.422 28.88C200.249 28.88 201.049 28.8 201.822 28.64C202.595 28.4533 203.249 28.1467 203.782 27.72L202.982 29.68C202.795 29.2533 202.649 28.8667 202.542 28.52C202.435 28.1733 202.355 27.8133 202.302 27.44C202.249 27.04 202.209 26.5733 202.182 26.04C202.182 25.48 202.182 24.7867 202.182 23.96V19.76C202.182 18.6667 201.995 17.8267 201.622 17.24C201.249 16.6533 200.675 16.2667 199.902 16.08C199.155 15.8667 198.209 15.76 197.062 15.76C195.915 15.76 194.822 15.8667 193.782 16.08C192.769 16.2667 191.942 16.5067 191.302 16.8H190.902V11.44C191.862 11.1733 192.929 10.96 194.102 10.8C195.302 10.6133 196.569 10.52 197.902 10.52C199.529 10.52 201.022 10.6667 202.382 10.96C203.742 11.2533 204.915 11.76 205.902 12.48C206.915 13.1733 207.689 14.1467 208.222 15.4C208.755 16.6267 209.022 18.2133 209.022 20.16V25C209.022 25.56 209.035 26.2533 209.062 27.08C209.089 27.9067 209.129 28.72 209.182 29.52C209.235 30.32 209.329 30.96 209.462 31.44L209.302 31.76C208.369 32.1067 207.382 32.4133 206.342 32.68C205.302 32.92 204.222 33.1067 203.102 33.24C201.982 33.4 200.849 33.48 199.702 33.48ZM213.401 22C213.401 19.3333 213.947 17.16 215.041 15.48C216.134 13.7733 217.627 12.52 219.521 11.72C221.441 10.92 223.627 10.52 226.081 10.52C227.947 10.52 229.561 10.76 230.921 11.24V16.84H230.481C230.027 16.6267 229.507 16.4533 228.921 16.32C228.334 16.16 227.641 16.08 226.841 16.08C224.841 16.08 223.294 16.5867 222.201 17.6C221.107 18.5867 220.561 20.0533 220.561 22C220.561 23.92 221.107 25.3867 222.201 26.4C223.294 27.3867 224.841 27.88 226.841 27.88C227.641 27.88 228.334 27.8133 228.921 27.68C229.507 27.52 230.027 27.3467 230.481 27.16H230.921V32.72C229.561 33.2 227.947 33.44 226.081 33.44C223.574 33.44 221.361 33.04 219.441 32.24C217.547 31.44 216.067 30.2 215.001 28.52C213.934 26.8133 213.401 24.64 213.401 22ZM242.697 33H235.657V9.24C235.657 8.70667 235.644 8.04 235.617 7.24C235.617 6.41333 235.577 5.61333 235.497 4.84C235.444 4.04 235.364 3.4 235.257 2.92L235.377 2.6H242.697V33ZM241.457 21.52L250.137 11.12H257.537V11.6C257.271 11.8133 256.937 12.1333 256.537 12.56C256.137 12.9867 255.724 13.4533 255.297 13.96C254.897 14.44 254.511 14.8933 254.137 15.32L246.817 23.36L246.857 18.88L254.617 29.04C255.124 29.7067 255.684 30.3733 256.297 31.04C256.937 31.7067 257.444 32.2 257.817 32.52V33H249.817L241.457 21.52Z" fill="white"/>
</svg>
