<svg width="20" height="20" viewBox="0 0 20 20" fill="none" xmlns="http://www.w3.org/2000/svg">
<path d="M10.6232 0H13.7478C14.0916 0 14.3728 0.28125 14.3728 0.625V3.125C14.3728 3.46875 14.0916 3.75 13.7478 3.75H10.6232V5H18.1223C18.8137 5 19.3722 5.55859 19.3722 6.25C19.3722 6.94141 18.8137 7.5 18.1223 7.5H1.87424C1.18291 7.5 0.624382 6.94141 0.624382 6.25C0.624382 5.55859 1.18291 5 1.87424 5H9.37335V0.625C9.37335 0.28125 9.65457 0 9.99828 0H10.6232ZM2.49916 8.75H4.99887V16.25H6.56118V8.75H9.06089V16.25H10.9357V8.75H13.4354V16.25H14.9977V8.75H17.4974V16.418C17.5208 16.4297 17.5443 16.4453 17.5677 16.4609L19.4425 17.7109C19.8995 18.0156 20.1065 18.5859 19.9463 19.1133C19.7862 19.6406 19.298 20 18.7473 20H1.24931C0.698592 20 0.214274 19.6406 0.0541361 19.1133C-0.106001 18.5859 0.0970998 18.0156 0.557983 17.7109L2.43276 16.4609C2.4562 16.4453 2.47963 16.4336 2.50307 16.418V8.75H2.49916Z" fill="black"/>
</svg>
