<svg width="20" height="20" viewBox="0 0 20 20" fill="none" xmlns="http://www.w3.org/2000/svg">
<path d="M9.68771 0H10.3128C10.8323 0 11.2503 0.417969 11.2503 0.9375V1.35547C14.3912 1.87891 16.8719 4.35938 17.3953 7.5H17.5008C18.1923 7.5 18.7509 8.05859 18.7509 8.75C18.7509 9.44141 18.1923 10 17.5008 10H2.49965C1.80819 10 1.24955 9.44141 1.24955 8.75C1.24955 8.05859 1.80819 7.5 2.49965 7.5H2.60513C3.1286 4.35938 5.60927 1.87891 8.75014 1.35547V0.9375C8.75014 0.417969 9.16814 0 9.68771 0ZM2.49965 11.25H4.99984V16.25H6.56247V11.25H9.06266V16.25H10.9378V11.25H13.438V16.25H15.0006V11.25H17.5008V16.418C17.5243 16.4297 17.5477 16.4453 17.5672 16.4609L19.4424 17.7109C19.8994 18.0156 20.1065 18.5859 19.9463 19.1133C19.7862 19.6406 19.3017 20 18.7509 20H1.24955C0.698728 20 0.214315 19.6406 0.0541467 19.1133C-0.106022 18.5859 0.0971188 18.0156 0.558092 17.7109L2.43324 16.4609C2.45668 16.4453 2.48012 16.4336 2.50356 16.418V11.25H2.49965Z" fill="#1B1C1E"/>
</svg>
